<svg enable-background="new 0 0 303.454 303.454" viewBox="0 0 303.454 303.454" xmlns="http://www.w3.org/2000/svg"><path d="m266.708 103.74 36.746 36.746v-36.746z"/><path d="m210.138 103.74h-47.93l60.812 60.812h-56.57l-60.812-60.812h-50.93l60.812 60.812h-56.57l-52.521-52.521c-.624 1.539-.975 3.218-.975 4.981v165.134c0 9.205 7.462 16.667 16.667 16.667h264.666c9.205 0 16.667-7.462 16.667-16.667v-117.594h-32.504z"/><path d="m253.32 4.641-50.405 7.303-51.465 68.902 50.406-7.302z"/><path d="m146.93 20.055-47.435 6.872-51.465 68.903 47.436-6.873z"/><path d="m299.973 45.918-4.477-30.902-37.657 50.417 30.902-4.477c7.254-1.051 12.283-7.783 11.232-15.038z"/><path d="m43.51 35.038-32.14 4.656c-7.253 1.051-12.282 7.784-11.231 15.038l4.086 28.204.57 3.936 13.298-17.804z"/></svg>