<svg enable-background="new 0 0 100 100" viewBox="0 0 100 125" xmlns="http://www.w3.org/2000/svg"><path d="m90.7 86.9c0 2.4-1.6 3-3 3h-72c-2.4 0-3-1.7-3-3v-27h78zm-5.2-42-4.5 12h-12l4.5-12zm-22.6 0-4.5 12h-12l4.5-12zm-22.5 0-4.5 12h-12l4.5-12zm-12.4-5.5-8.2-9.9 11.4-3.9 8.2 9.9zm13.1-17.3 11.4-3.9 8.2 9.9-11.5 3.9zm21.3-7.3 11.4-3.9 8.2 9.9-11.4 3.9zm-44.8 24.4c2.3 0 4.2 1.9 4.2 4.2s-1.9 4.2-4.2 4.2-4.2-1.9-4.2-4.2 1.8-4.2 4.2-4.2m79.1 47.7v-31.5-1.5-7.5c0-1.8-1.2-4.5-4.5-4.5h-62.5l59.5-20.5c3.1-1.1 3.4-4 2.8-5.7l-2.9-8.5c-1.1-3.1-4-3.4-5.7-2.8l-76.7 26.4c-3.1 1.1-3.4 4-2.8 5.7l3 8.5v.1c-.1.4-.3.8-.3 1.3v7.5 1.5 31.5c0 3.6 2.4 9 9 9h72c3.7.1 9.1-2.3 9.1-9"/><g font-family="'Helvetica Neue', Helvetica, Arial-Unicode, Arial, Sans-serif" font-size="5" font-weight="bold"><text y="115">Created by Rediffusion</text><text y="120">from the Noun Project</text></g></svg>